<?xml version="1.0" encoding="UTF-8"?>
<svg class="brand" viewBox="0 0 30 5.67" xmlns="http://www.w3.org/2000/svg">
<style type="text/css">.st0 {
              fill: #006393;
            }
            .st1 {
              fill: #9D9FA2;
            }</style>
<rect class="st0" x="20.26" y="2.85" width=".58" height=".63"/>
<path class="st1" d="m15.89 4.11c0 0.01-0.01 0.06-0.01 0.08-0.01 0.03-0.07 0.18-0.07 0.2v0.07c-0.02 0.01-0.06 0.04-0.08 0.04s-0.07-0.05-0.1-0.06c0-0.06 0.02-0.07 0.01-0.1-0.01-0.04-0.03-0.08-0.04-0.11s0-0.04-0.01-0.05c0 0-0.01 0.02-0.01 0.05 0.01 0.03 0.03 0.09 0.04 0.11 0 0.02 0 0.05-0.01 0.06-0.07-0.01-0.13-0.03-0.17-0.06-0.05-0.03-0.09-0.05-0.13-0.07 0.01-0.03 0.07-0.12 0.1-0.16s0.07-0.07 0.11-0.1c0.05-0.03 0.13-0.05 0.19-0.04s0.12 0.03 0.12 0.03 0.04-0.03 0.07-0.02l-0.02 0.04 0.04 0.02c0 0.01-0.03 0.06-0.03 0.07"/>
<path class="st1" d="m14.15 4.98c0-0.01-0.01-0.03-0.01-0.04l-0.03-0.1-0.04-0.14c0-0.02-0.01-0.04-0.01-0.06 0-0.11 0.09-0.2 0.2-0.2h0.03 0.02 0.01s0.01 0 0.01 0 0.01 0 0.01-0.01c0.01 0 0.01-0.01 0.02-0.01 0.03-0.02 0.07-0.03 0.11-0.03h0.06c0.03 0 0.05 0 0.08 0.01s0.06 0.01 0.08 0.02 0.03 0.01 0.03 0.01c0.02 0 0.02-0.02 0.04-0.02 0.01 0 0.02 0.01 0.03 0.01-0.04 0.06-0.07 0.13-0.09 0.21v0.01l0.28 0.12c0-0.01 0.05-0.13 0.05-0.13s0.05 0.04 0.08 0.05v0.07c0 0.09 0.02 0.21 0.02 0.25 0 0.01 0.01 0.01 0.01 0.01 0.01 0 0.08-0.01 0.1-0.04l0.01-0.17-0.01-0.14-0.1-0.23-0.02-0.04-0.02 0.07-0.12 0.29-0.25-0.1c0.02-0.08 0.05-0.16 0.09-0.22v-0.01-0.01l-0.07-0.03 0.02-0.05-0.02-0.01 0.02-0.01 0.02-0.02 0.03-0.03 0.01-0.01h0.01l-0.01-0.01-0.02-0.02c-0.01-0.02-0.02-0.03-0.03-0.05-0.01-0.01-0.01-0.02-0.01-0.03v-0.01c0-0.01-0.01-0.03-0.01-0.04v-0.02c0-0.02 0-0.03 0.01-0.04l0.01-0.01 0.01-0.01c0.01-0.01 0.01-0.01 0.02-0.01s0.01-0.01 0.01-0.01v-0.01h0.01c0.01 0 0.02 0 0.02 0.01 0-0.01-0.02-0.02-0.02-0.03v-0.01-0.01-0.01l-0.01-0.01c-0.01-0.01-0.02-0.03-0.03-0.05v-0.01-0.02-0.01l0.03-0.06s0.01-0.01 0.02-0.01 0.01-0.01 0.02-0.01h0.02 0.02 0.01 0.01 0.01 0.01v0.01c0 0.01 0.01 0.01 0.01 0.01s0 0 0 0c0.01 0.01 0.03 0.01 0.03 0.02s0.02 0.04 0.02 0.04 0.03 0.03 0.03 0.04v0.01c0.01 0 0.02 0 0.02-0.01v-0.01s0.02-0.03 0.03-0.03h0.04c0.04-0.03 0.06-0.07 0.06-0.11h0.01c0.01 0 0.01 0 0.02 0.01s0.02 0.01 0.02 0.02c0 0 0.01 0 0.01 0.01 0.01 0.01 0.01 0.01 0.01 0.02 0.01 0.01 0.01 0.02 0.01 0.03-0.02 0.04-0.06 0.07-0.11 0.09 0.01 0.01 0.02 0.02 0.02 0.03h0.05v0.14 0.01 0.01c0 0.01-0.01 0.01-0.01 0.02-0.01 0.01-0.03 0.02-0.05 0.03h-0.01-0.07l0.11 0.13-0.04 0.04s0.01 0.02 0.02 0.02c0.01 0.01 0.06 0.01 0.05 0.03v0.01c0 0.01-0.02 0.03-0.02 0.03-0.01 0.01-0.02 0.01-0.03 0.03 0.01 0 0.02 0.02 0.02 0.02 0.02-0.02 0.06-0.07 0.07-0.1 0.06 0.01 0.19 0.09 0.23 0.1 0.03 0.01 0.08 0.02 0.08 0.02 0 0.01-0.01 0.02-0.01 0.03 0 0 0.01 0.01 0.02 0.01s0.01 0.01 0.02 0.02c-0.01 0.04 0.01 0.07 0.01 0.09 0 0.01 0.01 0.02 0.01 0.03v0.01 0.03 0.03 0.01 0.01 0.01 0.01 0.04 0.01 0.01c0 0.02-0.01 0.03-0.01 0.04v0.01s0 0 0 0c-0.01 0-0.02-0.01-0.02-0.01-0.01 0-0.01-0.01-0.01-0.01l-0.01-0.01c0.01 0.02 0.02 0.03 0.04 0.05 0 0 0.01 0 0.01 0.01h0.01s0.04 0.01 0.05 0.01c0.02 0.01 0.08 0.01 0.12 0.03 0.01 0 0.02-0.01 0.05-0.01 0.04 0 0.06 0.04 0.06 0.06s-0.01 0.03-0.02 0.04c0 0.02-0.03 0.17-0.03 0.2v0.04s0.01 0.03 0.01 0.04v0.01 0.01c0 0.02-0.01 0.04-0.03 0.05 0 0.01-0.01 0.01-0.01 0.02-0.02 0.04-0.04 0.07-0.06 0.1l-0.05-0.11c0.01-0.02 0.03-0.04 0.04-0.06l0.01-0.01s0.01-0.01 0.02-0.01c0-0.02 0.01-0.04 0.02-0.05h0.01c0-0.01 0.01-0.17 0-0.22-0.01 0-0.05-0.01-0.06-0.02-0.01 0-0.18 0.01-0.18 0.01-0.01 0-0.02-0.01-0.03-0.01h-0.03c-0.01 0-0.02 0-0.03-0.01s-0.02-0.02-0.02-0.03v-0.01-0.01-0.01s0-0.01 0.01-0.01c-0.01 0-0.02-0.01-0.03-0.01s-0.02-0.01-0.02-0.02c-0.02-0.01-0.04-0.03-0.05-0.05 0-0.01-0.01-0.01-0.01-0.02 0.01 0.04 0.04 0.08 0.08 0.11v0.01 0.02c0 0.01 0.01 0.03 0.02 0.04s0.03 0.02 0.04 0.03c-0.01 0.05-0.04 0.14-0.04 0.15 0 0.02-0.05 0.12-0.05 0.12 0 0.04-0.01 0.08-0.02 0.11v0.03c0 0.01 0 0.05-0.01 0.11v0.01c0 0.01 0 0.01 0.01 0.01l0.01 0.01 0.01 0.01c0.01 0.01 0.01 0.02 0.02 0.03 0 0.01 0.01 0.01 0.01 0.02v0.01c0.01 0.03 0.02 0.05 0.02 0.08h-0.13v-0.02c0-0.03-0.01-0.06-0.02-0.09l-0.02-0.04c0-0.01 0-0.03 0.01-0.06l0.03-0.06s0.01-0.16 0.01-0.16c0-0.01-0.01-0.06-0.02-0.09 0 0-0.01-0.05-0.02-0.09 0-0.01 0.01-0.02 0.02-0.03-0.01 0.01-0.13 0.04-0.13 0.04s-0.03-0.04-0.04-0.04c-0.05 0-0.11-0.01-0.16-0.02-0.08-0.02-0.16-0.04-0.22-0.06-0.01 0-0.03-0.01-0.04-0.01v0.01 0.03c0 0.04-0.01 0.07-0.03 0.09-0.01 0.01-0.01 0.03-0.02 0.04 0.01 0.01 0.01 0.02 0.01 0.04v0.03 0.03c0.09 0.11 0.13 0.19 0.15 0.2s0.03 0.03 0.03 0.06v0.02c0 0.01-0.01 0.02-0.01 0.02v0.02 0.05c0 0.03-0.01 0.05-0.01 0.07 0 0.01-0.01 0.01-0.01 0.01l-0.04-0.03-0.06-0.05c0.01-0.01 0.01-0.02 0.02-0.04 0.01-0.01 0.01-0.02 0.02-0.03-0.01-0.01-0.02-0.02-0.02-0.04v-0.01-0.01c0-0.02 0.01-0.04 0.02-0.05-0.01-0.02-0.04-0.06-0.05-0.07-0.02-0.02-0.04-0.05-0.06-0.06-0.01-0.01-0.04-0.01-0.04-0.01-0.01 0-0.03-0.01-0.03-0.01l-0.03-0.01 0.01-0.03v-0.03c0-0.01 0-0.01-0.01-0.02v-0.01s0-0.01-0.01-0.01c-0.01-0.02-0.04-0.05-0.04-0.06 0.02-0.02 0.03-0.05 0.05-0.08 0.01-0.01 0.01-0.03 0.02-0.04 0.01-0.02 0.01-0.04 0.01-0.05v-0.03c0.01 0 0.01-0.01 0.02-0.01 0.02-0.01 0.03-0.03 0.04-0.04s0.01-0.02 0.02-0.03v-0.01 0.01c-0.02 0.03-0.04 0.05-0.07 0.07h-0.01s-0.01 0.01-0.02 0.01v0.02c0 0.01-0.01 0.02-0.01 0.03s-0.01 0.02-0.01 0.03c-0.04-0.07-0.05-0.05-0.06-0.04-0.01 0.02-0.02 0.03-0.03 0.05l-0.01 0.01c-0.02 0.03-0.05 0.05-0.08 0.07-0.02 0.01-0.03 0.02-0.05 0.03-0.01 0-0.01 0-0.01 0.01 0 0.02-0.02 0.04-0.04 0.05-0.01 0-0.02 0.01-0.02 0.02l-0.03 0.06c-0.01 0.04-0.02 0.1-0.02 0.11v0.04s0.02 0.07 0.02 0.08c0.03 0.02 0.05 0.05 0.06 0.08 0.01 0.02 0.01 0.04 0.02 0.06h-0.11c0-0.02-0.01-0.04-0.01-0.05-0.01-0.03-0.03-0.06-0.04-0.08 0-0.01-0.01-0.01-0.01-0.01v-0.01c0-0.02 0.01-0.05 0.02-0.07 0-0.01 0.01-0.01 0.01-0.02s0.01-0.14 0.01-0.14-0.02-0.07-0.04-0.1l0.02-0.02c0.02-0.01 0.03-0.02 0.03-0.05l0.01-0.01v-0.01c-0.02 0.02-0.05 0.03-0.09 0.03 0.02-0.04 0.04-0.09 0.03-0.15v0m0.62-0.61l0.09 0.04h0.01l-0.01-0.01-0.07-0.05-0.02 0.02zm0.01-0.05l0.04 0.03 0.1 0.08 0.01-0.01-0.1-0.12-0.01-0.01-0.04 0.03zm0.09-0.06l-0.01-0.01-0.05 0.04 0.05 0.05 0.09 0.1 0.01-0.01 0.08-0.07c-0.03-0.01-0.05-0.02-0.08-0.03-0.03-0.02-0.06-0.04-0.08-0.06l-0.01-0.01c0.01 0 0 0 0 0m0.17-0.43l-0.01-0.01c-0.01 0-0.02 0.01-0.03 0.01 0 0-0.01 0-0.01 0.01-0.01 0-0.01-0.01-0.01-0.02v-0.01c0-0.01 0-0.01 0.01-0.01s0.01 0 0.02-0.01c0 0 0-0.01 0.01-0.01 0-0.01-0.01-0.02-0.01-0.02s-0.01 0-0.01-0.01c-0.01 0-0.01-0.01-0.02-0.01v0.02 0.01 0.02h-0.01v-0.01s0-0.01 0-0.01v-0.01-0.05h-0.01-0.01-0.01s0 0.03 0.01 0.04l0.01 0.04h-0.01c0-0.01-0.01-0.03-0.01-0.04s-0.01-0.03-0.01-0.04c-0.01 0-0.02 0-0.03 0.01-0.01 0-0.01 0.01-0.02 0.01 0 0-0.01 0.01-0.01 0.02-0.01 0.01-0.01 0.01-0.01 0.02v0.01 0.01 0.01h0.01 0.03 0.02c0 0.01 0.01 0.03 0.02 0.04s0.02 0.02 0.03 0.02h0.01s0 0 0.01 0v0.01 0.01h0.01v-0.01-0.01-0.01-0.01h0.01v0.01l0.01 0.01v0.01l0.01 0.01 0.01-0.01 0.01-0.01v-0.01-0.01-0.01-0.01c-0.01 0.02-0.01 0.02-0.01 0.01m0.07 0.05c0.03 0 0.03-0.01 0.03-0.01h-0.05s-0.01 0.01 0.02 0.01m0.04-0.07h-0.03s-0.02 0.01-0.02 0.02v0.02h0.05c0.01-0.02 0-0.03 0-0.04m0.14-0.06c0-0.01-0.01-0.02-0.02-0.04-0.01-0.01-0.01-0.01-0.02-0.01s-0.01-0.01-0.02-0.01c0 0.01 0.01 0.02 0.02 0.03 0.02 0.03 0.03 0.03 0.04 0.03m-0.07 0.07c0.03-0.01 0.05-0.03 0.06-0.06 0 0-0.01 0-0.01-0.01-0.01 0-0.02-0.01-0.02-0.02s-0.01-0.01-0.02-0.02c-0.01 0.03-0.03 0.06-0.07 0.09v0.01 0.02c0.03 0.01 0.05 0 0.06-0.01m-0.02 0.09c0.01-0.01 0.01-0.02-0.01-0.04 0-0.01-0.01-0.01-0.01-0.01-0.01 0-0.01 0-0.01 0.01l-0.01 0.01h-0.01c0 0.01-0.01 0.01-0.01 0.02 0 0 0.02 0.01 0.03 0.02 0-0.01 0.02 0 0.03-0.01m-0.05 0.05v-0.04-0.01c-0.01 0-0.01-0.01-0.01-0.01h-0.01-0.03c-0.01 0-0.01 0-0.01-0.01-0.01 0-0.01-0.01-0.01-0.02h-0.01v0.03 0.02c0 0.01 0 0.03-0.01 0.04-0.02 0.01-0.04 0.02-0.06 0.02v0.02c0 0.01 0.01 0.03 0.01 0.04 0.01 0.02 0.01 0.04 0.01 0.06l0.02-0.02c0-0.02-0.01-0.03-0.01-0.05 0-0.01-0.01-0.02-0.01-0.03 0.02-0.01 0.04-0.02 0.05-0.04 0.01 0 0.03 0.01 0.03 0.01h0.05zm0.06 0.26l-0.14-0.15-0.09 0.07v0.01c0 0.01 0.01 0.02 0.01 0.02 0 0.01 0.01 0.01 0.01 0.02 0.01 0.01 0.01 0.02 0.02 0.02 0.02 0.02 0.04 0.03 0.07 0.04 0.02 0.01 0.03 0.01 0.05 0.01l0.07-0.04zm0.01 0.13v0c0.01-0.02 0.02-0.03 0.02-0.03 0-0.02-0.03-0.02-0.04-0.02l-0.02-0.02v0.01 0.03c0 0.01 0 0.04-0.01 0.04l0.02 0.01c0.01-0.01 0.01-0.02 0.03-0.02m-1.05 0.34c0 0.05 0.02 0.1 0.05 0.13-0.01-0.03-0.02-0.09-0.02-0.09v-0.07c0-0.03 0.03-0.1 0.04-0.13-0.02 0.01-0.03 0.03-0.04 0.05v0.01c-0.01 0.02-0.02 0.05-0.02 0.07-0.01 0.01-0.01 0.02-0.01 0.03"/>
<path class="st0" d="m15.61 2.76v-2.02c0-0.32-0.28-0.68-0.81-0.68h-0.81v3.42h0.81c0.4-0.01 0.81-0.1 0.81-0.72m-0.54-0.32c0 0.42-0.14 0.48-0.28 0.48h-0.29v-2.3h0.28c0.19 0 0.28 0.24 0.28 0.46v1.36zm-13.45 0.42v-2.2c0-0.36-0.36-0.66-0.81-0.66s-0.81 0.3-0.81 0.66v2.2c0 0.36 0.36 0.66 0.81 0.66s0.81-0.29 0.81-0.66m-0.49-0.28c0 0.2-0.12 0.36-0.26 0.36h-0.12c-0.04 0-0.07-0.01-0.1-0.03-0.09-0.05-0.16-0.18-0.16-0.33v-1.64c0-0.15 0.07-0.28 0.16-0.34 0.03-0.02 0.07-0.03 0.1-0.03h0.11c0.14 0 0.26 0.16 0.26 0.36v1.65z"/>
<path class="st0" d="m12.87 2.86v-2.2c0-0.36-0.36-0.66-0.81-0.66s-0.81 0.3-0.81 0.66v2.2c0 0.36 0.36 0.66 0.81 0.66s0.81-0.29 0.81-0.66m-0.49-0.28c0 0.2-0.12 0.36-0.26 0.36h-0.12c-0.14 0-0.26-0.16-0.26-0.36v-1.64c0-0.2 0.12-0.36 0.26-0.36h0.12c0.14 0 0.26 0.16 0.26 0.36v1.64zm3.49 0.89v-3.42h1.39v0.61h-0.8v0.7h0.64v0.59h-0.64v0.93h0.82v0.6h-1.41zm-13.19 0v-3.42h1.39v0.61h-0.8v0.7h0.63v0.59h-0.63v0.93h0.82v0.6h-1.41z"/>
<path class="st0" d="m6.39 3.47v-2.81h-0.47v-0.61h1.48v0.61h-0.46v2.81h-0.55zm-2.14-1.05h0.55c-0.08 1.09 1.09 0.47 0.27-0.26-0.28-0.26-0.61-0.46-0.73-0.84-0.04-0.12-0.05-0.25-0.05-0.4 0-0.28 0.07-0.51 0.21-0.67s0.35-0.24 0.6-0.24c0.26 0 0.45 0.07 0.58 0.22s0.2 0.36 0.2 0.65v0.14h-0.51v-0.1c0-0.91-1.19-0.18 0.02 0.61 0.29 0.19 0.39 0.43 0.44 0.54 0.03 0.07 0.06 0.15 0.07 0.24s0.02 0.19 0.02 0.29c0 0.3-0.07 0.52-0.22 0.69-0.15 0.16-0.36 0.24-0.63 0.24s-0.47-0.08-0.61-0.25c-0.14-0.16-0.21-0.41-0.21-0.72v-0.14zm14.12 0h0.54c-0.07 1.09 1.09 0.47 0.28-0.26-0.28-0.25-0.62-0.46-0.73-0.84-0.04-0.12-0.06-0.25-0.06-0.4 0-0.28 0.07-0.51 0.22-0.67 0.14-0.16 0.34-0.24 0.6-0.24s0.45 0.07 0.58 0.22c0.14 0.15 0.2 0.37 0.2 0.66v0.14h-0.52v-0.1c0-0.91-1.19-0.18 0.02 0.61 0.29 0.19 0.39 0.43 0.44 0.54 0.03 0.07 0.06 0.15 0.07 0.24 0.02 0.09 0.02 0.18 0.02 0.28 0 0.3-0.07 0.52-0.22 0.69-0.15 0.16-0.36 0.25-0.63 0.25s-0.47-0.08-0.61-0.25-0.21-0.41-0.21-0.72v-0.15z"/>
<path class="st0" d="m9.24 3.47h-0.57l-0.1-0.46h-0.68l-0.1 0.46h-0.57l0.72-3.42h0.58l0.72 3.42zm-0.78-0.97l-0.23-1.1-0.23 1.1h0.46zm16.48 0.97h-0.57l-0.1-0.46h-0.68l-0.1 0.46h-0.57l0.72-3.42h0.58l0.72 3.42zm-0.77-0.97l-0.23-1.1-0.24 1.1h0.47zm2.48-2.44l-0.01 2.81c0 0.36-0.35 0.66-0.8 0.66-0.44 0-0.79-0.3-0.8-0.66l-0.01-2.81h0.56v2.54c0 0.2 0.05 0.36 0.19 0.36h0.11c0.14 0 0.19-0.16 0.19-0.36v-2.54h0.57zm0.2 0h0.56v2.85h0.77v0.56h-1.33v-3.41z"/>
<path class="st0" d="m21.54 3.48h0.56v-1.24c0.32 0 0.62-0.04 0.81-0.3 0.18-0.26 0.16-0.51 0.16-0.82 0-0.32-0.02-0.67-0.22-0.86-0.19-0.19-0.43-0.2-0.75-0.2h-0.56v3.42zm0.56-2.85h0.19c0.11 0 0.19 0.09 0.19 0.2v0.65c0 0.11-0.09 0.2-0.19 0.2h-0.19v-1.05zm7.9 2.23v-2.2c0-0.36-0.36-0.66-0.81-0.66-0.44 0-0.81 0.3-0.81 0.66v2.2c0 0.36 0.36 0.66 0.81 0.66s0.81-0.29 0.81-0.66m-0.49-0.28c0 0.2-0.12 0.36-0.26 0.36h-0.11c-0.14 0-0.26-0.16-0.26-0.36v-1.64c0-0.2 0.12-0.36 0.26-0.36h0.11c0.14 0 0.26 0.16 0.26 0.36v1.64zm-18.52 0.18v-2.03c0-0.32-0.28-0.68-0.81-0.68h-0.81v3.42h0.81c0.4 0 0.81-0.09 0.81-0.71m-0.54-0.32c0 0.41-0.14 0.48-0.29 0.48h-0.28v-2.3h0.28c0.19 0 0.29 0.25 0.29 0.46v1.36z"/>
<rect class="st0" x="20.26" y="2.85" width=".58" height=".63"/>
</svg>
